<?xml version="1.0" standalone="no"?>
<!DOCTYPE svg PUBLIC "-//W3C//DTD SVG 20010904//EN"
 "http://www.w3.org/TR/2001/REC-SVG-20010904/DTD/svg10.dtd">
<svg version="1.0" xmlns="http://www.w3.org/2000/svg"
 width="470.000000pt" height="90.000000pt" viewBox="0 0 470.000000 90.000000"
 preserveAspectRatio="xMidYMid meet">

<g transform="translate(0.000000,90.000000) scale(0.100000,-0.100000)"
fill="#000000" stroke="none">
<path d="M700 853 c-8 -3 -27 -14 -41 -24 -24 -17 -28 -17 -39 -4 -34 41 -105
3 -131 -68 -11 -32 -18 -37 -44 -37 -76 0 -199 -89 -291 -211 -55 -71 -110
-176 -99 -187 4 -4 68 -7 142 -7 l136 0 48 -90 c58 -108 86 -135 139 -135 29
0 40 -5 45 -19 7 -23 45 -59 45 -42 0 6 -9 29 -20 51 -18 36 -22 38 -53 33
-48 -7 -83 26 -140 135 -42 79 -45 91 -30 96 10 4 19 4 21 -1 1 -4 15 -30 30
-58 21 -39 33 -51 55 -53 45 -5 51 31 15 101 -27 54 -29 77 -8 77 6 0 21 -22
34 -48 30 -58 48 -75 78 -70 35 5 35 47 -2 112 -29 51 -32 76 -10 76 11 0 106
-175 115 -212 5 -19 0 -39 -15 -66 l-22 -39 36 -71 c20 -40 41 -72 46 -72 17
0 11 20 -21 77 -31 54 -31 56 -15 89 26 56 20 91 -36 200 -60 118 -60 137 4
123 23 -6 52 -8 65 -4 31 7 47 39 33 66 -10 18 -6 26 34 63 70 65 59 116 -24
116 -27 0 -31 3 -25 18 29 69 4 107 -55 85z m50 -33 c0 -20 -28 -65 -59 -94
-48 -46 -36 -65 17 -27 39 29 95 37 112 16 11 -13 9 -20 -16 -46 -33 -35 -80
-62 -94 -54 -5 3 -11 1 -15 -4 -3 -6 8 -17 25 -26 18 -9 30 -23 30 -35 0 -16
-7 -20 -37 -20 -68 0 -79 8 -92 59 -12 49 -73 122 -85 103 -3 -5 3 -17 14 -27
31 -28 24 -36 -16 -19 -36 15 -94 13 -123 -6 -12 -7 -9 -14 12 -40 27 -31 28
-50 3 -50 -7 0 -22 13 -34 30 -28 37 -38 37 -81 1 l-34 -28 36 -46 c41 -54 53
-85 39 -99 -12 -12 -21 -2 -62 65 -16 26 -34 47 -40 47 -10 0 -124 -148 -132
-171 -2 -6 -12 -10 -21 -8 -15 3 -10 16 29 83 90 153 250 282 340 274 32 -2
38 0 41 20 9 59 54 109 87 96 20 -8 20 -33 0 -63 -12 -16 -13 -26 -6 -33 8 -8
16 -1 27 23 9 19 33 46 53 61 37 27 82 37 82 18z m-278 -312 c-17 -17 -47 9
-30 29 10 12 13 12 27 -1 11 -12 12 -19 3 -28z m108 -138 c20 -39 20 -60 0
-60 -13 0 -52 79 -45 90 12 19 25 10 45 -30z m-94 -106 c-8 -21 -23 -9 -47 38
-16 32 -18 42 -8 49 16 10 63 -65 55 -87z"/>
<path d="M1110 505 c0 -198 1 -205 20 -205 17 0 20 7 20 53 0 44 4 58 26 77
28 28 21 34 81 -67 32 -54 41 -63 66 -63 28 0 29 1 15 23 -58 89 -98 156 -98
163 0 5 24 30 52 56 l53 47 -30 1 c-24 0 -43 -12 -90 -60 -32 -32 -62 -57 -67
-54 -4 3 -8 57 -8 120 0 107 -1 114 -20 114 -19 0 -20 -7 -20 -205z"/>
<path d="M2020 505 c0 -198 1 -205 20 -205 17 0 20 7 20 53 0 43 5 58 23 76
28 25 25 27 81 -66 32 -54 42 -63 66 -63 l29 0 -59 92 -59 93 51 52 c47 48 50
53 29 53 -16 0 -47 -22 -90 -62 l-66 -63 -3 123 c-2 114 -4 122 -22 122 -19 0
-20 -8 -20 -205z"/>
<path d="M1454 581 c-39 -24 -64 -76 -64 -135 0 -99 52 -156 144 -156 41 0 53
5 82 34 19 19 34 41 34 50 0 26 -29 18 -57 -14 -20 -24 -33 -30 -64 -30 -47 0
-89 35 -89 75 l0 25 111 0 111 0 -7 43 c-9 53 -29 91 -57 111 -31 22 -106 20
-144 -3z m131 -46 c14 -13 25 -33 25 -45 0 -19 -6 -20 -85 -20 -79 0 -85 1
-85 20 0 34 44 70 85 70 25 0 44 -8 60 -25z"/>
<path d="M1765 588 c-31 -18 -44 -40 -45 -73 0 -46 11 -55 95 -84 90 -30 109
-49 81 -80 -26 -29 -98 -29 -126 -1 -11 11 -20 25 -20 30 0 6 -9 10 -20 10
-28 0 -26 -32 3 -66 45 -52 176 -42 207 15 15 29 12 77 -6 92 -9 8 -51 25 -93
39 -59 20 -77 30 -79 46 -4 30 24 48 72 47 29 -2 45 -8 55 -23 14 -21 51 -28
51 -9 0 6 -13 24 -29 40 -25 24 -37 29 -78 29 -26 0 -57 -6 -68 -12z"/>
<path d="M2359 583 c-83 -51 -89 -196 -11 -264 32 -28 40 -31 89 -27 63 6 95
30 119 95 15 38 15 51 5 98 -17 75 -62 115 -129 115 -26 0 -59 -8 -73 -17z
m105 -27 c41 -17 61 -67 53 -133 -6 -59 -38 -93 -86 -93 -41 0 -51 5 -74 40
-20 29 -23 107 -5 146 7 15 26 33 43 40 37 16 30 16 69 0z"/>
<path d="M2707 580 c-30 -24 -37 -25 -37 -5 0 8 -9 15 -20 15 -19 0 -20 -7
-20 -145 l0 -145 25 0 25 0 0 105 c0 99 2 107 25 130 16 17 35 25 59 25 55 0
66 -25 66 -152 0 -101 1 -108 20 -108 19 0 20 7 20 125 0 120 -1 127 -25 150
-31 32 -100 35 -138 5z"/>
<path d="M3028 579 c-24 -17 -28 -18 -28 -5 0 9 -8 16 -20 16 -19 0 -20 -7
-20 -145 0 -138 1 -145 20 -145 18 0 20 7 20 89 0 134 19 171 90 171 42 0 50
-26 50 -156 0 -97 1 -104 20 -104 19 0 20 7 20 104 0 89 3 107 21 130 15 19
30 26 54 26 51 0 60 -19 64 -147 3 -103 5 -113 22 -113 18 0 19 9 19 115 0
120 -12 166 -45 179 -33 12 -83 6 -109 -15 l-27 -21 -23 21 c-29 28 -91 28
-128 0z"/>
<path d="M3470 572 c-16 -17 -30 -38 -30 -46 0 -25 36 -19 48 8 8 17 22 27 48
32 52 10 89 -12 89 -51 0 -32 -14 -39 -99 -50 -64 -9 -96 -40 -96 -94 0 -31 6
-44 26 -60 34 -27 89 -27 133 0 l33 20 20 -20 c20 -23 53 -28 63 -10 4 6 -2
17 -14 25 -19 14 -21 25 -21 118 0 135 -9 148 -103 154 -63 4 -68 3 -97 -26z
m160 -157 c0 -86 -136 -128 -156 -49 -9 36 14 55 83 70 32 7 61 13 66 13 4 1
7 -15 7 -34z"/>
<path d="M3838 579 c-24 -17 -28 -18 -28 -5 0 9 -8 16 -20 16 -19 0 -20 -7
-20 -145 0 -138 1 -145 20 -145 19 0 20 7 20 95 0 131 18 165 90 165 52 0 60
-19 60 -146 l0 -114 26 0 26 0 -3 126 c-4 123 -5 126 -32 150 -36 31 -100 32
-139 3z"/>
<path d="M4138 584 c-39 -20 -58 -64 -58 -129 0 -98 37 -152 110 -162 32 -5
48 -1 71 16 l29 22 0 -35 c0 -53 -35 -88 -89 -90 -35 -1 -47 4 -59 22 -15 23
-52 30 -52 10 2 -60 119 -90 187 -48 52 32 57 50 61 233 4 164 4 167 -17 167
-12 0 -21 -6 -21 -15 0 -20 -7 -19 -37 5 -30 24 -86 26 -125 4z m128 -45 c13
-15 20 -40 22 -89 4 -63 2 -71 -21 -94 -34 -34 -85 -35 -114 -3 -41 43 -42
148 -2 188 26 26 90 26 115 -2z"/>
<path d="M4463 579 c-58 -37 -81 -144 -46 -216 22 -48 66 -73 127 -73 41 0 53
5 82 34 38 38 44 66 14 66 -11 0 -20 -4 -20 -10 0 -5 -10 -18 -22 -30 -49 -45
-148 -9 -148 55 l0 25 110 0 c98 0 110 2 110 18 0 39 -24 97 -50 124 -23 23
-37 28 -77 28 -31 0 -59 -8 -80 -21z m136 -45 c12 -15 21 -35 21 -45 0 -17 -9
-19 -85 -19 -76 0 -85 2 -85 19 0 10 12 30 26 45 37 36 94 36 123 0z"/>
</g>
</svg>
